<svg width="64" height="64" viewBox="0 0 64 64" fill="none" xmlns="http://www.w3.org/2000/svg">
  <defs>
    <linearGradient id="dp-gold" x1="0" y1="0" x2="64" y2="64" gradientUnits="userSpaceOnUse">
      <stop offset="0" stop-color="#f5d978"/>
      <stop offset="1" stop-color="#d4af37"/>
    </linearGradient>
  </defs>
  <rect width="64" height="64" rx="16" fill="#0F1112"/>
  <rect x="3" y="3" width="58" height="58" rx="15" stroke="url(#dp-gold)" stroke-width="2"/>
  <path
    d="M18 44V20H30C35.5 20 39 23.5 39 28.8C39 34.1 35.5 37.6 30 37.6H23.8V44H18ZM23.8 32.9H29.3C31.7 32.9 33.2 31.5 33.2 28.9C33.2 26.3 31.7 24.9 29.3 24.9H23.8V32.9Z
       M44 44V20H49.8V27.2H52.4C56 27.2 58.5 29.7 58.5 33.4C58.5 37.1 56 39.6 52.4 39.6H49.8V44H44ZM49.8 34.8H51.7C53.1 34.8 53.9 33.9 53.9 33.0C53.9 32.1 53.1 31.2 51.7 31.2H49.8V34.8Z"
    fill="url(#dp-gold)"/>
</svg>

